<svg xmlns="http://www.w3.org/2000/svg" width="900" height="640" viewBox="0 0 900 640">
  <defs>
    <linearGradient id="bg" x1="0" y1="0" x2="1" y2="1">
      <stop offset="0" stop-color="#eff6ff"/>
      <stop offset="1" stop-color="#f5f3ff"/>
    </linearGradient>
    <linearGradient id="card" x1="0" y1="0" x2="1" y2="1">
      <stop offset="0" stop-color="#ffffff"/>
      <stop offset="1" stop-color="#eef2ff"/>
    </linearGradient>
  </defs>
  <rect width="900" height="640" rx="42" fill="url(#bg)"/>
  <text x="450" y="72" text-anchor="middle" font-family="Arial, Helvetica, sans-serif" font-size="34" font-weight="800" fill="#0f172a">Phys-WorldBench</text>
  <text x="450" y="108" text-anchor="middle" font-family="Arial, Helvetica, sans-serif" font-size="16" fill="#475569">From passive prediction to active intervention</text>
  <g transform="translate(58,155)">
    <rect x="0" y="0" width="240" height="300" rx="28" fill="url(#card)" stroke="#bfdbfe"/>
    <circle cx="120" cy="92" r="48" fill="#dbeafe" stroke="#2563eb" stroke-width="3"/>
    <path d="M84 192 C120 140, 158 140, 192 192" fill="none" stroke="#2563eb" stroke-width="10" stroke-linecap="round"/>
    <text x="120" y="245" text-anchor="middle" font-family="Arial" font-size="22" font-weight="800" fill="#1e40af">Level-1</text>
    <text x="120" y="275" text-anchor="middle" font-family="Arial" font-size="14" fill="#64748b">Passive World Modeling</text>
  </g>
  <g transform="translate(330,155)">
    <rect x="0" y="0" width="240" height="300" rx="28" fill="url(#card)" stroke="#ddd6fe"/>
    <rect x="70" y="58" width="100" height="100" rx="18" fill="#ede9fe" stroke="#7c3aed" stroke-width="3"/>
    <path d="M70 210 L170 210 M120 165 L120 255" stroke="#7c3aed" stroke-width="10" stroke-linecap="round"/>
    <text x="120" y="245" text-anchor="middle" font-family="Arial" font-size="22" font-weight="800" fill="#6d28d9">Level-2</text>
    <text x="120" y="275" text-anchor="middle" font-family="Arial" font-size="14" fill="#64748b">Action-Effect Reasoning</text>
  </g>
  <g transform="translate(602,155)">
    <rect x="0" y="0" width="240" height="300" rx="28" fill="url(#card)" stroke="#bbf7d0"/>
    <path d="M80 150 C80 95, 160 95, 160 150 C160 205, 80 205, 80 150Z" fill="#dcfce7" stroke="#16a34a" stroke-width="3"/>
    <path d="M120 70 L120 230 M65 150 L175 150" stroke="#16a34a" stroke-width="10" stroke-linecap="round"/>
    <text x="120" y="245" text-anchor="middle" font-family="Arial" font-size="22" font-weight="800" fill="#15803d">Level-3</text>
    <text x="120" y="275" text-anchor="middle" font-family="Arial" font-size="14" fill="#64748b">World Action Modeling</text>
  </g>
  <path d="M300 305 L328 305" stroke="#94a3b8" stroke-width="4" stroke-linecap="round"/>
  <path d="M572 305 L600 305" stroke="#94a3b8" stroke-width="4" stroke-linecap="round"/>
  <text x="450" y="540" text-anchor="middle" font-family="Arial" font-size="18" font-weight="700" fill="#334155">Replace this SVG with your official teaser figure or Fig. 1 export.</text>
</svg>
